<?xml version="1.0" standalone="no"?>
<!DOCTYPE svg PUBLIC "-//W3C//DTD SVG 20010904//EN"
 "http://www.w3.org/TR/2001/REC-SVG-20010904/DTD/svg10.dtd">
<svg version="1.0" xmlns="http://www.w3.org/2000/svg"
 width="512.000000pt" height="512.000000pt" viewBox="0 0 512.000000 512.000000"
 preserveAspectRatio="xMidYMid meet">

<g transform="translate(0.000000,512.000000) scale(0.100000,-0.100000)"
fill="#000000" stroke="none">
<path d="M501 4226 c-53 -29 -50 33 -51 -1326 l0 -1265 23 -28 c13 -17 38 -32
62 -37 54 -13 3996 -13 4050 0 24 5 49 20 62 37 l23 28 0 1263 c0 1373 3 1304
-55 1330 -40 19 -4080 17 -4114 -2z m3799 -1326 l0 -970 -1740 0 -1740 0 0
970 0 970 1740 0 1740 0 0 -970z"/>
<path d="M7 1373 c-12 -11 -8 -33 20 -101 79 -199 237 -328 458 -373 92 -19
152 -19 2112 -16 1910 2 2021 3 2078 20 153 46 278 133 354 246 43 63 94 184
89 209 -3 16 -174 17 -2554 20 -1403 1 -2554 -1 -2557 -5z m2933 -243 l0 -90
-380 0 -380 0 0 90 0 90 380 0 380 0 0 -90z"/>
</g>
</svg>
